<svg width="164" height="40" viewBox="0 0 164 40" fill="none" xmlns="http://www.w3.org/2000/svg">
  <g clip-path="url(#clip0_126_3304)">
    <path fill-rule="evenodd" clip-rule="evenodd" d="M19.9652 18.9057L24.4364 16.2006L28.253 13.8961L22.3266 10.3103L11.1236 3.53931L2.83594 8.54897L11.4056 13.7274L19.9652 18.9057Z" fill="#929292"/>
    <path fill-rule="evenodd" clip-rule="evenodd" d="M20.5234 8.54896L28.8111 13.5586L30.9964 12.235L37.0938 8.54896L28.8111 3.53931L20.5234 8.54896Z" fill="#929292"/>
    <path fill-rule="evenodd" clip-rule="evenodd" d="M37.3725 9.05518L29.0898 14.0648V31.0186L37.3725 36.0283V9.05518Z" fill="#929292"/>
    <path fill-rule="evenodd" clip-rule="evenodd" d="M28.5297 14.4023L20.2471 19.4067V31.2559L28.5297 26.2515V14.4023Z" fill="#929292"/>
    <path fill-rule="evenodd" clip-rule="evenodd" d="M11.4043 26.2515L19.6869 31.2612V19.4067L11.4043 14.4023V26.2515Z" fill="#929292"/>
    <path fill-rule="evenodd" clip-rule="evenodd" d="M8.67212 12.7518L2.55957 9.05518V36.0283L10.8473 31.0186V26.5837V14.0648L8.67212 12.7518Z" fill="#929292"/>
    <path fill-rule="evenodd" clip-rule="evenodd" d="M141.614 15.1405V16.1951C141.148 15.7187 140.598 15.3438 139.992 15.0922C139.387 14.8405 138.74 14.7171 138.09 14.7292C136.1 14.7827 134.209 15.6482 132.819 17.1411C131.43 18.634 130.652 20.6362 130.652 22.7208C130.652 24.8055 131.43 26.8078 132.819 28.3007C134.209 29.7936 136.1 30.6591 138.09 30.7127C139.402 30.6961 140.66 30.1634 141.614 29.2203V30.2433H145.602V15.1405H141.614ZM141.297 21.3367V24.0999C141.039 24.7364 140.609 25.2798 140.06 25.6632C139.51 26.0465 138.865 26.2528 138.206 26.2567C137.305 26.2554 136.441 25.8838 135.8 25.222C135.159 24.5602 134.791 23.6611 134.776 22.7183C134.806 21.7776 135.177 20.884 135.814 20.2204C136.451 19.5568 137.307 19.1733 138.206 19.1482C138.868 19.1587 139.513 19.3714 140.062 19.76C140.611 20.1487 141.04 20.6966 141.297 21.3367ZM156.831 15.1405L153.633 24.1526L150.441 15.1405H145.844L151.382 29.716L150.798 31.4825C150.375 32.5899 148.98 32.7007 148.135 31.6777L146.891 35.3268C147.694 36.0288 148.7 36.4281 149.745 36.4606C151.301 36.4606 153.522 36.102 154.654 33.1173L161.443 15.1405H156.831ZM123.705 8.86523H115.2V30.238H119.611V23.3247H123.705C125.535 23.3247 127.291 22.563 128.586 21.2071C129.88 19.8514 130.608 18.0124 130.608 16.095C130.608 14.1775 129.88 12.3386 128.586 10.9828C127.291 9.62693 125.535 8.86523 123.705 8.86523ZM119.611 13.2896H123.544C124.225 13.3334 124.865 13.648 125.334 14.1693C125.802 14.6906 126.063 15.3793 126.063 16.095C126.063 16.8107 125.802 17.4993 125.334 18.0206C124.865 18.5419 124.225 18.8565 123.544 18.9003H119.611V13.2896Z" fill="#929292"/>
    <path fill-rule="evenodd" clip-rule="evenodd" d="M68.6599 8.86526H64.4857L60.0499 22.9925L55.614 8.86526H51.4701L47.6133 30.2381H52.2103L54.2696 18.3467L57.9151 30.2381H62.1897L65.9006 18.236L68.0154 30.2381H72.6375L68.675 8.86526H68.6599ZM83.4025 15.1405V23.0769C83.4025 24.8751 82.2645 26.146 80.6835 26.146C79.1026 26.146 77.9899 25.181 77.9899 23.3247V15.1405H73.6848V23.6042C73.6848 27.6383 76.0614 30.5967 79.7269 30.5967C80.4547 30.6226 81.1801 30.496 81.8606 30.2244C82.541 29.9526 83.1628 29.5414 83.6894 29.0146V30.2591H87.7175V15.1405H83.4025ZM95.5572 26.3411C95.2528 26.5251 94.8966 26.5922 94.5501 26.5309C94.4101 26.5053 94.284 26.4266 94.1959 26.3099C94.1077 26.1932 94.0635 26.0466 94.0718 25.8981V8.86526H89.7971V26.1196C89.7971 28.8565 91.3075 30.6546 93.5984 30.6546C94.7234 30.576 95.8079 30.1847 96.7403 29.5208L95.5521 26.3569L95.5572 26.3411ZM105.597 25.9245L107.022 29.1623C105.825 30.0824 104.387 30.5944 102.903 30.6283C100.24 30.6283 98.4423 28.7721 98.4423 25.6503V18.8741H95.4212V15.1405H98.4423V10.3945H102.747V15.1405H106.735V18.8741H102.747V25.202C102.747 26.1406 103.09 26.5257 103.986 26.5257C104.556 26.4557 105.106 26.2579 105.597 25.9456V25.9245ZM110.546 13.6745C111.04 13.6539 111.516 13.4818 111.917 13.1798C112.317 12.8778 112.624 12.4592 112.799 11.9759C112.975 11.4927 113.01 10.9662 112.902 10.4619C112.794 9.95755 112.546 9.49766 112.191 9.13939C111.835 8.78112 111.386 8.54027 110.901 8.4468C110.416 8.35332 109.915 8.41133 109.461 8.61361C109.006 8.8159 108.619 9.15356 108.346 9.58458C108.074 10.0156 107.929 10.521 107.928 11.0379C107.943 11.7507 108.226 12.4285 108.717 12.9227C109.208 13.4169 109.866 13.6873 110.546 13.6745ZM108.376 30.2381H112.656V15.1405H108.376V30.2381Z" fill="#929292"/>
  </g>
  <defs>
    <clipPath id="clip0_126_3304">
      <rect width="160" height="34" fill="white" transform="translate(2 3)"/>
    </clipPath>
  </defs>
</svg>
