<svg width="164" height="40" viewBox="0 0 164 40" fill="none" xmlns="http://www.w3.org/2000/svg">
  <title>Ontario Brand Logo</title>
  <g clip-path="url(#clip0_126_3288)">
    <path d="M75.594 3C80.197 3 82.7904 6.43112 82.7904 10.7406C82.7904 15.0482 80.197 18.4793 75.594 18.4793C70.9934 18.4793 68.3945 15.0482 68.3945 10.7406C68.3945 6.4301 70.9934 3 75.594 3ZM75.594 15.1502C78.0483 15.1502 78.9891 12.9439 78.9891 10.7406C78.9891 8.53434 78.0483 6.32711 75.594 6.32711C73.1417 6.32711 72.1989 8.53537 72.1989 10.7406C72.1999 12.9439 73.1417 15.1502 75.594 15.1502ZM84.2034 7.3681H87.5765V8.84536H87.6195C88.2536 7.74272 89.6821 7.05512 90.9523 7.05512C94.4901 7.05512 94.7784 9.67842 94.7784 11.2385V18.1673H91.301V12.9459C91.301 11.4687 91.4638 9.96924 89.5622 9.96924C88.2536 9.96924 87.6817 11.0921 87.6817 12.2785L87.6808 18.1673H84.2034L84.2043 7.3681M102.974 9.65617H100.827V14.5686C100.827 15.4218 101.319 15.6086 102.075 15.6086C102.363 15.6086 102.668 15.5672 102.974 15.5672V18.1683C102.341 18.1875 101.707 18.2713 101.073 18.2713C98.1085 18.2713 97.3508 17.3969 97.3508 14.4636V9.65617H95.5937L95.5928 7.36912H97.3508V4.10059H100.827V7.3681H102.974V9.65617ZM103.875 10.6973C103.935 9.28257 104.59 8.36579 105.531 7.80633C106.472 7.26408 107.698 7.05512 108.904 7.05512C111.421 7.05512 113.854 7.6185 113.854 10.677V15.3996C113.854 16.3145 113.854 17.3161 114.262 18.1673H110.766C110.642 17.8351 110.602 17.4999 110.561 17.1474C109.662 18.1047 108.333 18.4783 107.064 18.4783C105.04 18.4783 103.446 17.4383 103.446 15.2118C103.446 11.6949 107.209 11.9644 109.621 11.4687C110.214 11.3425 110.541 11.1355 110.541 10.469C110.541 9.65719 109.581 9.34524 108.866 9.34524C107.903 9.34524 107.291 9.78142 107.126 10.6983H103.875M108.374 16.2943C110.029 16.2943 110.581 15.337 110.499 13.1106C110.009 13.4235 109.108 13.4851 108.353 13.6931C107.575 13.881 106.921 14.2141 106.921 15.0674C106.921 15.9409 107.596 16.2943 108.374 16.2943ZM115.755 7.3681H119.13V9.26143H119.171C119.681 7.88911 120.868 7.16109 122.359 7.16109C122.625 7.16109 122.912 7.18232 123.178 7.24295V10.47C122.729 10.3449 122.32 10.2611 121.848 10.2611C120.131 10.2611 119.23 11.4676 119.23 12.8207V18.1683H115.755V7.3681ZM127.431 6.01608H123.955V3.31H127.431V6.01608ZM123.955 7.3681H127.431V18.1673H123.955V7.3681ZM134.446 7.05717C137.737 7.05717 140.048 9.53297 140.048 12.7804C140.048 16.0237 137.737 18.4793 134.446 18.4793C131.152 18.4793 128.863 16.0237 128.863 12.7804C128.863 9.53204 131.153 7.05717 134.446 7.05717ZM134.446 15.7752C136.062 15.7752 136.572 14.1516 136.572 12.7793C136.572 11.404 136.061 9.76121 134.446 9.76121C132.829 9.76121 132.34 11.403 132.34 12.7793C132.34 14.1516 132.829 15.7752 134.446 15.7752ZM68.9085 21.8296H72.8131L77.8845 30.987H77.9257V21.8296H81.5047V36.6869H77.599L72.5264 27.4266H72.4857V36.6869H68.9085V21.8296ZM88.5181 25.5758C91.8098 25.5758 94.1204 28.0527 94.1204 31.299C94.1204 34.5443 91.8098 37 88.5181 37C85.2237 37 82.9368 34.5443 82.9368 31.299C82.9368 28.0517 85.2246 25.5758 88.5181 25.5758ZM88.5181 34.2939C90.1342 34.2939 90.6448 32.6703 90.6448 31.2979C90.6448 29.9247 90.1333 28.2819 88.5181 28.2819C86.9038 28.2819 86.4124 29.9247 86.4124 31.2979C86.4124 32.6703 86.9038 34.2939 88.5181 34.2939ZM95.5526 25.8888H98.9266V27.7811H98.9678C99.4793 26.4088 100.664 25.6798 102.157 25.6798C102.422 25.6798 102.709 25.703 102.977 25.7636V28.9887C102.527 28.8645 102.117 28.7817 101.648 28.7817C99.9286 28.7817 99.0282 29.9893 99.0282 31.3404V36.688H95.5526V25.8888ZM110.541 28.1769H108.393V33.0873C108.393 33.9415 108.884 34.1263 109.641 34.1263C109.927 34.1263 110.235 34.0869 110.541 34.0869V36.688C109.906 36.7071 109.273 36.79 108.639 36.79C105.674 36.79 104.917 35.9176 104.917 32.9832V28.1769H103.161V25.8888H104.917V22.6213H108.393V25.8888H110.54L110.541 28.1769ZM112.095 21.8296H115.571V27.365H115.613C116.143 26.2624 117.577 25.5758 118.842 25.5758C122.381 25.5758 122.668 28.1981 122.668 29.7581V36.686H119.192V31.4636C119.192 29.9863 119.355 28.4868 117.453 28.4868C116.143 28.4868 115.571 29.6117 115.571 30.7982L115.572 36.686H112.095V21.8296Z" fill="#929292"/>
    <path fill-rule="evenodd" clip-rule="evenodd" d="M124.586 21.8291H128.065V36.6864H124.586V21.8291Z" fill="#929292"/>
    <path d="M129.86 29.2164C129.919 27.8017 130.575 26.8858 131.516 26.3245C132.456 25.7833 133.682 25.5753 134.888 25.5753C137.406 25.5753 139.838 26.1367 139.838 29.1962V33.9197C139.838 34.8345 139.838 35.8342 140.247 36.6854L136.75 36.6864C136.626 36.3532 136.586 36.02 136.545 35.6676C135.646 36.6228 134.317 36.9985 133.049 36.9985C131.024 36.9985 129.431 35.9594 129.431 33.7329C129.431 30.215 133.194 30.4856 135.605 29.9867C136.199 29.8636 136.526 29.6546 136.526 28.9891C136.526 28.1773 135.566 27.8654 134.849 27.8654C133.888 27.8654 133.275 28.3015 133.11 29.2174H129.86M134.358 34.8144C136.015 34.8144 136.565 33.8571 136.483 31.6306C135.993 31.9427 135.092 32.0043 134.337 32.2143C133.559 32.4001 132.904 32.7353 132.904 33.5875C132.905 34.46 133.58 34.8144 134.358 34.8144ZM141.618 25.8882H144.991V27.3645H145.032C145.667 26.2618 147.097 25.5753 148.365 25.5753C151.903 25.5753 152.19 28.1975 152.19 29.7576V36.6854H148.714V31.463C148.714 29.9878 148.878 28.4883 146.975 28.4883C145.667 28.4883 145.094 29.6112 145.094 30.7976V36.6854H141.619V25.8882M164.5 36.6874H161.188V35.4374H161.145C160.472 36.4583 159.449 36.9985 158.22 36.9985C154.886 36.9985 153.477 34.0864 153.477 31.047C153.477 28.2379 154.949 25.5742 157.955 25.5742C159.264 25.5742 160.264 26.075 160.981 27.0525H161.023V21.8291H164.5V36.6874ZM156.954 31.1723C156.954 32.6515 157.485 34.2933 159.079 34.2933C160.775 34.2933 161.145 32.6515 161.145 31.2762C161.145 29.7152 160.594 28.2793 159.079 28.2793C157.485 28.2793 156.954 29.7999 156.954 31.1723Z" fill="#929292"/>
    <path d="M5.97484 3.24756L25.2054 15.3089L11.2965 23.7978L25.0844 32.6644L19.8848 35.9894L0.288061 24.0483C0.166992 24.0483 0.166992 23.922 0.166992 23.7988L13.9568 15.3089L0.166992 6.44336L5.97484 3.24756Z" fill="#929292"/>
    <path d="M22.6626 3.24756L42.7435 15.3089L28.8306 24.0483L42.5005 32.7845L37.2989 35.9884L17.7051 24.0483V23.7988L31.3719 15.1888L17.7051 6.44336L22.5395 3.36871C22.6626 3.36871 22.5395 3.24756 22.6626 3.24756Z" fill="#929292"/>
    <path d="M41.1772 3.18262L60.7709 15.3712L46.863 23.9832L60.7709 32.7276L55.0881 36.0487L35.8535 23.9832L49.5214 15.4944L35.8535 6.5087L40.934 3.30777C41.0541 3.18262 40.934 3.18262 41.1772 3.18262Z" fill="#929292"/>
  </g>
  <defs>
    <clipPath id="clip0_126_3288">
      <rect width="164" height="40" fill="white"/>
    </clipPath>
  </defs>
</svg>
