<svg width="141" height="40" viewBox="0 0 141 40" fill="none" xmlns="http://www.w3.org/2000/svg">
  <g clip-path="url(#clip0_126_3274)">
    <path d="M58.5621 8.53467C58.5621 8.6111 58.5804 8.68895 58.5804 8.76538C58.5804 16.2386 58.5804 23.7113 58.5804 31.1837C58.5804 31.4087 58.5184 31.4667 58.3083 31.4483C58.0545 31.4299 57.7979 31.4483 57.5427 31.4483C57.3826 31.4526 57.2237 31.421 57.0774 31.3559C56.931 31.2908 56.8009 31.1937 56.6967 31.0718C53.9312 27.9712 51.1648 24.8705 48.3974 21.7699C47.6078 20.8839 46.814 20.0007 46.0103 19.1019C45.978 19.1831 45.9682 19.2717 45.9821 19.3581C45.9821 23.2655 45.9821 27.1729 45.9821 31.0803C45.9821 31.3549 45.9821 31.3549 45.7085 31.3549C44.3874 31.3549 43.0662 31.3549 41.745 31.3549C41.5758 31.3549 41.5293 31.3082 41.5293 31.1398C41.5293 23.6854 41.5293 16.2273 41.5293 8.76538C41.5293 8.60261 41.5716 8.55873 41.7309 8.56581C42.0566 8.57855 42.3838 8.56581 42.7179 8.56581C42.8813 8.5636 43.043 8.59916 43.1905 8.66984C43.338 8.74061 43.4672 8.84446 43.5682 8.97344L49.9555 16.5429C51.2273 18.0526 52.4991 19.5581 53.7709 21.0594C53.8598 21.1641 53.9274 21.3057 54.1206 21.2477C54.3406 21.1825 54.3166 21.0099 54.3166 20.8513C54.3166 18.6565 54.3166 16.4603 54.3166 14.2627C54.3166 12.4387 54.3166 10.6133 54.3166 8.78661C54.3281 8.70221 54.3219 8.61641 54.2983 8.53467H58.5621Z" fill="#929292"/>
    <path d="M115.04 8.53467C115.063 8.61685 115.07 8.70319 115.057 8.78802C115.057 16.1885 115.057 23.5906 115.057 30.994C115.057 31.1964 115.026 31.2884 114.796 31.2657C114.549 31.2481 114.299 31.2481 114.051 31.2657C113.876 31.2735 113.703 31.2404 113.544 31.1689C113.385 31.0973 113.245 30.9895 113.134 30.8539C112.228 29.8498 111.321 28.8477 110.413 27.8476L104.505 21.3368L102.611 19.2505C102.572 19.2067 102.529 19.1628 102.452 19.0849V19.3638C102.452 23.2787 102.452 27.1946 102.452 31.1115C102.452 31.3125 102.411 31.3761 102.2 31.3733C100.884 31.3638 99.5676 31.3638 98.2519 31.3733C98.0236 31.3733 97.9893 31.3011 97.9893 31.0902C97.9954 25.5419 97.9954 19.9941 97.9893 14.4467C97.9893 12.5643 97.9893 10.6818 97.9893 8.79934C97.9893 8.62242 98.0289 8.56581 98.2096 8.57571C98.5286 8.59128 98.8494 8.57571 99.1684 8.57571C99.3323 8.57041 99.4953 8.60331 99.6442 8.67187C99.7941 8.74034 99.9254 8.8426 100.028 8.97061L105.426 15.3667C107.042 17.269 108.655 19.1717 110.262 21.075C110.345 21.1726 110.403 21.3156 110.599 21.2505C110.796 21.1854 110.796 21.0283 110.796 20.874C110.796 18.8349 110.796 16.7957 110.796 14.7567C110.796 12.7591 110.796 10.762 110.796 8.76538C110.796 8.68895 110.784 8.6111 110.778 8.53467H115.04Z" fill="#929292"/>
    <path d="M37.084 8.53408C37.0936 8.59636 37.0996 8.65925 37.1023 8.72233C37.1023 10.1377 37.1023 11.5531 37.1023 12.9586C37.1023 13.1397 37.0487 13.1822 36.8753 13.1808C34.8082 13.1808 32.7412 13.1808 30.6713 13.1808C30.0537 13.1808 29.8126 13.4214 29.8126 14.0484C29.8126 15.1538 29.8126 16.2593 29.8126 17.3633C29.8126 17.5345 29.8605 17.5756 30.0255 17.5741C31.8444 17.5741 33.6633 17.5741 35.4822 17.5671C35.6683 17.5671 35.7318 17.6025 35.7304 17.8077C35.7205 19.2684 35.7304 20.7305 35.7304 22.1954C35.7304 22.3624 35.6895 22.4063 35.5217 22.4063C33.6887 22.3992 31.8712 22.4063 30.0452 22.3964C29.8535 22.3964 29.8126 22.4473 29.814 22.6313C29.8225 23.7877 29.814 24.9426 29.814 26.0976C29.814 26.3184 29.814 26.542 29.9747 26.7246C30.0357 26.8034 30.1137 26.8675 30.2028 26.9118C30.292 26.9562 30.3899 26.9797 30.4894 26.9808C30.8377 26.9808 31.1859 26.9808 31.5342 26.9808C33.3202 26.9808 35.1029 26.9808 36.8823 26.9808C37.0543 26.9808 37.1107 27.0162 37.1107 27.2002C37.1023 28.4769 37.1023 29.753 37.1107 31.0288C37.1107 31.2114 37.0755 31.268 36.8795 31.268C33.1195 31.2604 29.3618 31.2604 25.6066 31.268C25.4063 31.268 25.3654 31.21 25.3654 31.0203C25.3654 23.6178 25.3654 16.2158 25.3654 8.81433C25.3654 8.72091 25.3654 8.62891 25.3584 8.53125L37.084 8.53408Z" fill="#929292"/>
    <path d="M93.5565 8.53408C93.5662 8.59636 93.5724 8.65925 93.5751 8.72233C93.5751 10.1377 93.5751 11.5531 93.5751 12.9586C93.5751 13.1397 93.5213 13.1822 93.3477 13.1808C91.2803 13.1808 89.2137 13.1808 87.1436 13.1808C86.5246 13.1808 86.2835 13.4214 86.2835 14.0484C86.2835 15.1538 86.2835 16.2593 86.2835 17.3633C86.2835 17.5345 86.3314 17.5756 86.4964 17.5741C88.3158 17.5741 90.1347 17.5741 91.9536 17.5671C92.1395 17.5671 92.2029 17.6025 92.2012 17.8077C92.1915 19.2684 92.2012 20.7305 92.2012 22.1954C92.2012 22.3624 92.1606 22.4063 91.9923 22.4063C90.1593 22.3992 88.3422 22.4063 86.5161 22.3964C86.3244 22.3964 86.2835 22.4473 86.2849 22.6313C86.2934 23.7877 86.2849 24.9426 86.2849 26.0976C86.2849 26.3184 86.2849 26.542 86.4457 26.7246C86.5067 26.8034 86.5846 26.8675 86.6738 26.9118C86.7629 26.9562 86.8609 26.9797 86.9603 26.9808C87.3086 26.9808 87.6568 26.9808 88.0051 26.9808C89.791 26.9808 91.5746 26.9808 93.3547 26.9808C93.5257 26.9808 93.5821 27.0162 93.5821 27.2002C93.5733 28.4769 93.5733 29.753 93.5821 31.0288C93.5821 31.2114 93.5469 31.268 93.3503 31.268C89.59 31.2604 85.8304 31.2604 82.0704 31.268C81.8702 31.268 81.8293 31.21 81.8293 31.0189C81.8293 23.6173 81.8293 16.2158 81.8293 8.81433C81.8293 8.72091 81.8293 8.62891 81.8223 8.53125L93.5565 8.53408Z" fill="#929292"/>
    <path d="M22.3325 8.53413C22.3551 8.61905 22.3015 8.68558 22.2733 8.75493C19.38 16.0205 16.4857 23.2862 13.5905 30.5519C13.3719 31.1024 13.0124 31.4351 12.4075 31.4605C12.1642 31.4677 11.9248 31.3985 11.7225 31.2625C11.5203 31.1265 11.3654 30.9305 11.2795 30.7019C10.9143 29.8144 10.5604 28.9227 10.2023 28.0325C7.7244 21.8529 5.24045 15.6705 2.75039 9.48527C2.61058 9.17539 2.48819 8.85781 2.38379 8.53413H7.62758C7.76858 8.61198 7.79255 8.75635 7.84331 8.88798C9.33229 12.7935 10.8217 16.6985 12.3116 20.6031C12.3384 20.6739 12.3441 20.7574 12.4244 20.8098L12.4935 20.6314C13.9975 16.6938 15.5015 12.7552 17.0055 8.81579C17.0351 8.70636 17.0958 8.608 17.1804 8.53271L22.3325 8.53413Z" fill="#929292"/>
    <path d="M138.576 8.7153C136.071 12.684 133.565 16.6537 131.061 20.6243C130.814 21.0102 130.685 21.4597 130.688 21.918C130.688 24.9837 130.688 28.0504 130.688 31.118C130.688 31.3105 130.643 31.3657 130.446 31.3643C129.061 31.3558 127.676 31.3558 126.291 31.3643C126.093 31.3643 126.062 31.3034 126.063 31.1251C126.063 28.0594 126.063 24.9927 126.063 21.9251C126.068 21.4549 125.938 20.9933 125.69 20.5946C123.246 16.6391 120.801 12.6816 118.358 8.72238C118.322 8.66435 118.262 8.61339 118.27 8.53413H123.093C123.346 8.58933 123.583 8.69761 123.791 8.8518C123.999 9.0059 124.172 9.20255 124.3 9.42865C125.428 11.3621 126.566 13.2884 127.702 15.2176C127.92 15.5884 128.14 15.9578 128.373 16.3499C128.424 16.2734 128.46 16.2239 128.491 16.1715C129.779 13.9848 131.073 11.8037 132.345 9.60982C132.657 9.07056 133.05 8.66859 133.663 8.53271C135.284 8.53271 136.904 8.53271 138.522 8.53271C138.579 8.53555 138.666 8.57801 138.576 8.7153Z" fill="#929292"/>
    <path d="M78.1244 8.53467C78.1244 9.93873 78.1244 11.3428 78.1244 12.7469C78.1244 12.9634 78.0609 12.996 77.8649 12.996C76.1532 12.9875 74.4414 12.996 72.7297 12.996C72.3899 12.996 72.4308 12.9464 72.4308 13.3073C72.4308 19.2378 72.4308 25.1692 72.4308 31.1016C72.4308 31.3181 72.38 31.3733 72.1629 31.3719C70.7849 31.3624 69.4068 31.3624 68.0288 31.3719C67.8398 31.3719 67.7975 31.3238 67.7975 31.1369C67.8116 25.1753 67.8187 19.2137 67.8187 13.2521C67.8187 13.0384 67.7707 12.9832 67.555 12.9846C65.8997 12.996 64.2457 12.9846 62.5904 12.9846C62.3154 12.9846 62.3154 12.9846 62.3154 12.7016V8.53467H78.1244Z" fill="#929292"/>
  </g>
  <defs>
    <clipPath id="clip0_126_3274">
      <rect width="141" height="40" fill="white"/>
    </clipPath>
  </defs>
</svg>
