<svg width="143" height="40" viewBox="0 0 143 40" fill="none" xmlns="http://www.w3.org/2000/svg">
  <title>Vidico Brand Logo</title>
  <g clip-path="url(#clip0_126_3244)">
    <path d="M50.2595 33.4389L59.5857 7.96509H52.9241L47.3417 23.9765L41.7591 7.96509H35.0977L44.4237 33.4389H50.2595Z" fill="#929292"/>
    <path d="M64.8553 13.7865C66.9429 13.7865 68.6716 12.0751 68.6716 9.89205C68.6716 7.709 66.9453 6 64.8553 6C62.7654 6 61.0391 7.71137 61.0391 9.89443C61.0391 12.0775 62.7678 13.7889 64.8553 13.7889V13.7865ZM61.7592 33.4364H67.9539V15.2442H61.7592V33.4388V33.4364Z" fill="#929292"/>
    <path d="M79.9546 33.657C82.3306 33.657 84.0241 32.7823 84.8873 31.6185V33.4389H90.6481V7.41992L84.4534 8.07413V16.5907C83.48 15.6805 81.9694 15.0263 79.917 15.0263C74.9115 15.0263 70.9873 18.8828 70.9873 24.3416C70.9873 29.8004 74.9115 33.657 79.9546 33.657ZM80.8553 28.0536C78.838 28.0536 77.2548 26.6337 77.2548 24.3416C77.2548 22.0495 78.838 20.6297 80.8553 20.6297C82.8724 20.6297 84.3853 22.0495 84.3853 24.3416C84.3853 26.6337 82.8724 28.0536 80.8553 28.0536Z" fill="#929292"/>
    <path d="M97.493 13.7865C99.5806 13.7865 101.309 12.0751 101.309 9.89205C101.309 7.709 99.5806 6 97.493 6C95.4055 6 93.6768 7.71137 93.6768 9.89443C93.6768 12.0775 95.4055 13.7889 97.493 13.7889V13.7865ZM94.3969 33.4364H100.592V15.2442H94.3969V33.4388V33.4364Z" fill="#929292"/>
    <path d="M132.984 33.6571C138.459 33.6571 142.348 29.6536 142.348 24.3417C142.348 19.0298 138.459 15.0264 132.984 15.0264C127.51 15.0264 123.621 19.0298 123.621 24.3417C123.621 29.6536 127.51 33.6571 132.984 33.6571ZM132.984 27.6886C131.075 27.6886 129.816 26.3422 129.816 24.3417C129.816 22.3411 131.075 20.9948 132.984 20.9948C134.894 20.9948 136.153 22.3411 136.153 24.3417C136.153 26.3422 134.894 27.6886 132.984 27.6886Z" fill="#929292"/>
    <path d="M115.959 25.3678C115.601 26.7877 114.479 27.6884 112.95 27.6884C111.221 27.6884 109.781 26.342 109.781 24.3415C109.781 22.3409 111.221 20.9947 112.95 20.9947C114.101 20.9947 115.002 21.4687 115.542 22.3054L120.078 18.1574C118.422 16.2279 115.936 15.0286 112.983 15.0286C107.618 15.0286 103.619 18.9585 103.619 24.3439C103.619 29.7293 107.544 33.6593 113.018 33.6593C117.005 33.6593 120.186 31.4169 121.535 28.063L115.955 25.3702L115.959 25.3678Z" fill="#929292"/>
    <path d="M19.5248 33.4413C25.6729 33.4413 30.657 28.3729 30.657 22.1207C30.657 15.8685 25.6729 10.8 19.5248 10.8C13.3766 10.8 8.39258 15.8685 8.39258 22.1207C8.39258 28.3729 13.3766 33.4413 19.5248 33.4413Z" fill="#929292"/>
    <path d="M19.6091 19.0035C22.0088 20.3878 22.0088 23.8816 19.6091 25.2659L5.33624 33.498C2.9578 34.8681 0 33.1329 0 30.3669V13.905C0 11.1364 2.9578 9.40137 5.33624 10.7738L19.6091 19.0035Z" fill="#929292"/>
  </g>
  <defs>
    <clipPath id="clip0_126_3244">
    <rect width="143" height="28" fill="white" transform="translate(0 6)"/>
    </clipPath>
  </defs>
</svg>
