<svg width="119" height="40" viewBox="0 0 119 40" fill="none" xmlns="http://www.w3.org/2000/svg">
  <title>Vimeo Brand Logo</title>
  <g clip-path="url(#clip0_126_3254)">
    <path fill-rule="evenodd" clip-rule="evenodd" d="M96.3359 28.9475C96.3091 28.6977 96.2892 28.4471 96.2764 28.1962C96.0752 24.7392 97.3096 21.5618 99.9827 18.6674C102.85 15.4517 106.454 13.8438 110.799 13.8438C113.586 13.8438 115.697 14.7903 117.133 16.679C118.488 18.4086 119.105 20.6383 118.986 23.3715C118.825 27.0709 117.471 30.2669 114.922 32.9595C112.372 35.6532 109.203 37 105.419 37C102.272 37 99.881 35.9745 98.2475 33.9235C97.8789 33.4524 97.5602 32.9432 97.2966 32.4045C96.8693 32.6721 96.4203 32.9408 95.9497 33.2084C91.7263 35.6619 87.4423 36.887 83.0999 36.887C79.8728 36.887 77.561 35.8001 76.1665 33.6274C76.0647 33.475 75.968 33.3192 75.8766 33.1602L75.7489 33.2743C73.079 35.6082 70.4101 36.7741 67.7424 36.7741C65.1503 36.7741 63.8965 35.3263 63.9766 32.4286C64.0144 31.1399 64.2643 29.5924 64.7219 27.7816C65.1796 25.9719 65.4295 24.5626 65.4695 23.5568C65.5095 22.0279 65.0508 21.2624 64.0902 21.2624C63.0516 21.2624 61.8129 22.5116 60.373 25.0068C58.8542 27.6248 58.0331 30.1616 57.9141 32.6162C57.834 34.3491 58.0006 35.6784 58.4171 36.603C55.6368 36.6841 53.6896 36.2202 52.5785 35.2145C51.5833 34.3283 51.1267 32.8597 51.2079 30.8054C51.2457 29.5167 51.4415 28.228 51.7942 26.9404C52.1458 25.6517 52.3405 24.5045 52.3816 23.4965C52.4617 22.0071 51.9219 21.2624 50.7654 21.2624C49.7669 21.2624 48.6883 22.4107 47.5329 24.7063C46.3765 26.9996 45.7371 29.3961 45.6181 31.8923C45.5381 34.1484 45.6819 35.7168 46.0465 36.603C43.3117 36.6841 41.3698 36.1017 40.2198 34.8558C39.6952 34.2811 39.3273 33.543 39.1164 32.6403C38.8935 32.8542 38.6631 33.0659 38.4283 33.2743C35.7573 35.6082 33.0885 36.7741 30.4196 36.7741C29.1842 36.7741 28.2376 36.3716 27.581 35.5676C26.9243 34.7626 26.6149 33.7174 26.6549 32.4286C26.6939 31.1015 27.1017 29.0495 27.8795 26.2725C28.6563 23.4965 29.0457 22.0071 29.0457 21.8053C29.0457 20.7612 28.6855 20.2369 27.9704 20.2369C27.7443 20.2369 27.1298 20.6131 26.1259 21.3622C25.3686 23.649 23.7178 26.4468 21.1744 29.7547C17.5557 34.5092 14.4942 36.887 11.9898 36.887C10.4385 36.887 9.12514 35.4393 8.05305 32.5438L5.90456 24.5812C5.10835 21.6857 4.25479 20.2369 3.34065 20.2369C3.1416 20.2369 2.44491 20.6603 1.25275 21.5037L0 19.8728C1.30342 18.7156 2.59804 17.5482 3.88373 16.3708C5.63627 14.8408 6.95068 14.0368 7.82804 13.9557C9.89864 13.7539 11.1741 15.1852 11.6523 18.2495C12.1694 21.5552 12.5275 23.6106 12.7287 24.4156C13.3258 27.1575 13.9825 28.5285 14.7008 28.5285C15.2569 28.5285 16.0942 27.639 17.2106 25.8601C18.3249 24.0811 18.921 22.7266 19.0021 21.7965C19.1612 20.261 18.564 19.4922 17.2096 19.4922C16.5724 19.4922 15.9157 19.6403 15.2407 19.9331C16.5475 15.6008 19.0476 13.4983 22.7355 13.6179C25.1988 13.6914 26.4894 15.1534 26.6062 18.0028C27.2002 17.4588 27.7941 16.9159 28.3869 16.3708C30.1005 14.8408 31.3749 14.0368 32.2144 13.9557C33.5277 13.835 34.4927 14.2255 35.1115 15.1292C35.7281 16.0319 35.9564 17.2043 35.7995 18.6488C35.2803 21.0968 34.722 24.2039 34.1249 27.9735C34.0848 29.6999 34.7026 30.5619 35.978 30.5619C36.5341 30.5619 37.5304 29.9664 38.966 28.7742L39.0179 28.7303C39.1099 27.8891 39.257 26.8899 39.4615 25.7328C39.7893 23.865 39.9721 22.4107 40.011 21.3666C40.0889 20.6449 39.9094 20.283 39.4734 20.283C39.2332 20.283 38.556 20.6899 37.4396 21.5037L36.0062 19.8728C36.2052 19.7137 37.459 18.5457 39.7709 16.3708C41.4445 14.8024 42.5793 13.9974 43.1764 13.9568C44.2128 13.8756 45.0502 14.3077 45.6863 15.2543C46.3245 16.2008 46.6437 17.2975 46.6437 18.5457C46.6437 18.9482 46.6036 19.331 46.5247 19.6929C47.1029 18.789 47.8077 17.9751 48.6169 17.2767C50.4495 15.6666 52.5017 14.7596 54.7725 14.5589C56.7251 14.3977 58.1185 14.8605 58.9569 15.9474C59.6331 16.8336 59.95 18.1026 59.9122 19.7532C60.1913 19.5119 60.4899 19.2498 60.8101 18.9679C61.7253 17.881 62.621 17.0157 63.4984 16.3708C64.9718 15.285 66.5069 14.6806 68.0994 14.5589C70.012 14.3977 71.3859 14.8583 72.2233 15.943C72.9394 16.8248 73.2586 18.0883 73.1807 19.7324C73.1396 20.8555 72.8713 22.4908 72.3736 24.6372C71.8738 26.7825 71.6261 28.0152 71.6261 28.3355C71.5861 29.18 71.6661 29.7613 71.8652 30.0815C72.0642 30.4029 72.5413 30.5619 73.2986 30.5619C73.6394 30.5619 74.1424 30.3393 74.811 29.8951C74.7473 29.3702 74.7213 28.8412 74.7331 28.3125C74.7709 25.0528 76.2065 21.9545 79.0366 19.014C82.1435 15.7939 85.8087 14.1827 90.0322 14.1827C93.9375 14.1827 96.0081 15.7906 96.2483 19.003C96.4073 21.0507 95.2909 23.1598 92.9011 25.3281C90.3502 27.6994 87.1415 29.2041 83.2784 29.8468C83.9945 30.8504 85.0699 31.3527 86.5054 31.3527C89.3733 31.3527 92.5019 30.6168 95.8902 29.1405C96.0406 29.0769 96.1888 29.0122 96.3359 28.9475ZM112.232 23.1434C112.272 22.0543 112.122 21.0551 111.783 20.1492C111.445 19.241 110.956 18.7859 110.319 18.7859C108.287 18.7859 106.613 19.8958 105.3 22.1146C104.182 23.9308 103.585 25.8666 103.506 27.9231C103.466 28.9321 103.647 29.8205 104.045 30.5861C104.481 31.4745 105.1 31.9165 105.897 31.9165C107.69 31.9165 109.225 30.8493 110.499 28.7106C111.575 26.9338 112.152 25.0803 112.232 23.1434ZM89.1959 21.1143C89.2338 20.034 88.7978 19.4911 87.8826 19.4911C86.6872 19.4911 85.4755 20.3235 84.2423 21.9852C83.009 23.6479 82.3718 25.2404 82.3339 26.7616C82.3112 26.7616 82.3112 27.0226 82.3339 27.5436C84.2493 26.8453 85.9833 25.7154 87.4055 24.239C88.5587 22.958 89.1559 21.9161 89.1959 21.1143ZM37.8312 6.00406C37.7901 7.00652 37.2924 7.96839 36.3361 8.88968C35.2597 9.93161 33.9842 10.4515 32.5108 10.4515C30.2401 10.4515 29.1442 9.45123 29.2232 7.44742C29.2621 6.40548 29.8701 5.40413 31.0449 4.44226C32.2209 3.48148 33.5255 3 34.9611 3C35.7974 3 36.4941 3.33232 37.0534 3.99258C37.6105 4.65394 37.8701 5.32406 37.8312 6.00406Z" fill="#929292"/>
  </g>
  <defs>
  <clipPath id="clip0_126_3254">
    <rect width="119" height="34" fill="white" transform="translate(0 3)"/>
  </clipPath>
  </defs>
</svg>
